<?xml version="1.0" standalone="no"?>
<!DOCTYPE svg PUBLIC "-//W3C//DTD SVG 20010904//EN"
 "http://www.w3.org/TR/2001/REC-SVG-20010904/DTD/svg10.dtd">
<svg version="1.0" xmlns="http://www.w3.org/2000/svg"
 width="1652.000000pt" height="1652.000000pt" viewBox="0 0 1652.000000 1652.000000"
 preserveAspectRatio="xMidYMid meet">
<metadata>
Created by potrace 1.14, written by Peter Selinger 2001-2017
</metadata>
<g transform="translate(0.000000,1652.000000) scale(0.100000,-0.100000)"
fill="#000000" stroke="none">
<path d="M11955 12786 c-141 -33 -246 -89 -347 -184 -64 -60 -287 -391 -2247
-3330 l-2175 -3263 -1141 1140 c-627 627 -1160 1156 -1185 1174 -123 93 -250
132 -430 132 -136 0 -196 -14 -326 -77 -114 -55 -245 -187 -303 -304 -61 -126
-76 -188 -76 -324 0 -194 38 -307 155 -460 32 -41 710 -726 1507 -1521 1534
-1532 1499 -1499 1648 -1557 158 -62 331 -66 489 -13 110 36 182 80 269 161
63 59 305 418 2498 3706 1335 2003 2439 3664 2452 3690 119 234 96 524 -57
738 -93 130 -222 224 -374 273 -96 31 -266 40 -357 19z"/>
</g>
</svg>
