<?xml version="1.0" standalone="no"?>
<!DOCTYPE svg PUBLIC "-//W3C//DTD SVG 20010904//EN"
 "http://www.w3.org/TR/2001/REC-SVG-20010904/DTD/svg10.dtd">
<svg version="1.0" xmlns="http://www.w3.org/2000/svg"
 width="2065.000000pt" height="2065.000000pt" viewBox="0 0 2065.000000 2065.000000"
 preserveAspectRatio="xMidYMid meet">
<metadata>
Created by potrace 1.14, written by Peter Selinger 2001-2017
</metadata>
<g transform="translate(0.000000,2065.000000) scale(0.100000,-0.100000)"
fill="#000000" stroke="none">
<path d="M14085 14858 c-163 -13 -320 -91 -447 -222 -22 -23 -1017 -1507
-2210 -3298 -1194 -1792 -2174 -3258 -2178 -3258 -5 0 -518 512 -1142 1139
-919 923 -1148 1148 -1211 1189 -124 82 -311 131 -446 117 -266 -27 -490 -181
-597 -410 -84 -180 -92 -343 -29 -544 52 -163 8 -116 1544 -1655 779 -780
1454 -1451 1500 -1492 161 -142 320 -200 529 -192 134 5 225 31 333 94 155 91
-10 -149 2622 3799 1433 2150 2436 3662 2458 3710 53 110 69 182 70 301 0 219
-76 394 -236 542 -151 138 -339 199 -560 180z"/>
</g>
</svg>
